
          <svg data-logo="logo" xmlns="http://www.w3.org/2000/svg" viewBox="0 0 209 42">
            <g id="logogram" transform="translate(0, 1) rotate(0)"><path d="M0.25 20C0.25 8.9543 9.2043 0 20.25 0H46.5C57.5458 0 66.5 8.9543 66.5 20V40H20.25C9.2043 40 0.25 31.0458 0.25 20Z" fill="#4845D2"/><path d="M46.5 7.5H20.25C13.3464 7.5 7.75 13.0964 7.75 20C7.75 26.9036 13.3464 32.5 20.25 32.5H46.5C53.4036 32.5 59 26.9036 59 20C59 13.0964 53.4036 7.5 46.5 7.5Z" fill="#A5B4FC"/><path d="M20.25 26.25C23.7018 26.25 26.5 23.4518 26.5 20C26.5 16.5482 23.7018 13.75 20.25 13.75C16.7982 13.75 14 16.5482 14 20C14 23.4518 16.7982 26.25 20.25 26.25Z" fill="#000000"/><path d="M17.75 18.75C18.4404 18.75 19 18.1904 19 17.5C19 16.8096 18.4404 16.25 17.75 16.25C17.0596 16.25 16.5 16.8096 16.5 17.5C16.5 18.1904 17.0596 18.75 17.75 18.75Z" fill="#ffffff"/><path d="M47.75 26.25C51.2018 26.25 54 23.4518 54 20C54 16.5482 51.2018 13.75 47.75 13.75C44.2982 13.75 41.5 16.5482 41.5 20C41.5 23.4518 44.2982 26.25 47.75 26.25Z" fill="#000000"/><path d="M45.25 18.75C45.9404 18.75 46.5 18.1904 46.5 17.5C46.5 16.8096 45.9404 16.25 45.25 16.25C44.5596 16.25 44 16.8096 44 17.5C44 18.1904 44.5596 18.75 45.25 18.75Z" fill="#ffffff"/></g>
            <g id="logotype" transform="translate(73, 8)"><path fill="#111111" d="M13.64 26L8.31 26L8.31 0.54L14.12 0.54L22.17 13.42Q22.78 14.41 23.41 15.58Q24.05 16.74 24.70 18.16Q25.36 19.57 26.01 21.35L26.01 21.35L25.48 21.35Q25.36 19.93 25.27 18.33Q25.17 16.72 25.11 15.25Q25.04 13.78 25.04 12.76L25.04 12.76L25.04 0.54L30.37 0.54L30.37 26L24.54 26L17.23 14.31Q16.42 12.99 15.74 11.76Q15.06 10.52 14.31 9.01Q13.57 7.51 12.55 5.44L12.55 5.44L13.21 5.44Q13.31 7.29 13.42 8.98Q13.52 10.67 13.58 12.05Q13.64 13.42 13.64 14.29L13.64 14.29L13.64 26ZM41.13 26.38L41.13 26.38Q38.26 26.38 36.16 25.14Q34.06 23.90 32.92 21.68Q31.79 19.47 31.79 16.53L31.79 16.53Q31.79 13.56 32.92 11.35Q34.06 9.13 36.16 7.89Q38.26 6.65 41.13 6.65L41.13 6.65Q44.02 6.65 46.12 7.89Q48.21 9.13 49.35 11.35Q50.48 13.56 50.48 16.53L50.48 16.53Q50.48 19.47 49.35 21.68Q48.21 23.90 46.12 25.14Q44.02 26.38 41.13 26.38ZM41.13 22.34L41.13 22.34Q42.50 22.34 43.42 21.58Q44.35 20.82 44.81 19.50Q45.27 18.17 45.27 16.52L45.27 16.52Q45.27 14.82 44.81 13.51Q44.35 12.19 43.42 11.44Q42.50 10.69 41.13 10.69L41.13 10.69Q39.77 10.69 38.85 11.44Q37.94 12.19 37.48 13.51Q37.02 14.82 37.02 16.52L37.02 16.52Q37.02 18.17 37.48 19.50Q37.94 20.82 38.85 21.58Q39.77 22.34 41.13 22.34ZM56.91 26L51.78 26L51.78 6.89L56.53 6.89L56.79 11.64L56.41 11.64Q56.86 9.88 57.72 8.77Q58.58 7.66 59.74 7.13Q60.91 6.60 62.19 6.60L62.19 6.60Q64.26 6.60 65.52 7.91Q66.78 9.22 67.38 11.95L67.38 11.95L66.78 11.95Q67.21 10.12 68.18 8.94Q69.14 7.75 70.47 7.18Q71.79 6.60 73.24 6.60L73.24 6.60Q75.00 6.60 76.38 7.37Q77.76 8.14 78.55 9.59Q79.35 11.03 79.35 13.11L79.35 13.11L79.35 26L74.22 26L74.22 14.09Q74.22 12.46 73.34 11.68Q72.46 10.89 71.18 10.89L71.18 10.89Q70.22 10.89 69.51 11.31Q68.80 11.73 68.42 12.48Q68.03 13.23 68.03 14.24L68.03 14.24L68.03 26L63.08 26L63.08 13.95Q63.08 12.55 62.25 11.72Q61.42 10.89 60.10 10.89L60.10 10.89Q59.20 10.89 58.47 11.30Q57.74 11.71 57.33 12.51Q56.91 13.30 56.91 14.45L56.91 14.45L56.91 26ZM86.78 26.38L86.78 26.38Q84.97 26.38 83.52 25.74Q82.08 25.09 81.25 23.82Q80.42 22.55 80.42 20.65L80.42 20.65Q80.42 19.06 81.01 17.98Q81.60 16.91 82.62 16.26Q83.63 15.61 84.92 15.27Q86.21 14.93 87.63 14.79L87.63 14.79Q89.29 14.62 90.31 14.47Q91.32 14.33 91.79 14.01Q92.26 13.70 92.26 13.08L92.26 13.08L92.26 12.99Q92.26 12.17 91.92 11.61Q91.58 11.05 90.91 10.75Q90.25 10.45 89.27 10.45L89.27 10.45Q88.28 10.45 87.55 10.75Q86.81 11.05 86.35 11.54Q85.89 12.04 85.67 12.65L85.67 12.65L80.97 11.87Q81.46 10.21 82.61 9.05Q83.75 7.88 85.45 7.27Q87.15 6.65 89.27 6.65L89.27 6.65Q90.83 6.65 92.28 7.02Q93.73 7.39 94.89 8.16Q96.04 8.93 96.72 10.16Q97.39 11.39 97.39 13.13L97.39 13.13L97.39 26L92.54 26L92.54 23.35L92.37 23.35Q91.90 24.24 91.14 24.91Q90.37 25.59 89.28 25.98Q88.20 26.38 86.78 26.38ZM88.23 22.77L88.23 22.77Q89.44 22.77 90.36 22.29Q91.27 21.81 91.78 20.99Q92.30 20.17 92.30 19.16L92.30 19.16L92.30 17.10Q92.08 17.27 91.61 17.40Q91.15 17.54 90.59 17.64Q90.02 17.75 89.48 17.83Q88.93 17.92 88.50 17.97L88.50 17.97Q87.56 18.10 86.85 18.41Q86.13 18.72 85.74 19.22Q85.34 19.73 85.34 20.51L85.34 20.51Q85.34 21.25 85.72 21.75Q86.09 22.26 86.73 22.51Q87.38 22.77 88.23 22.77ZM106.48 26.32L106.48 26.32Q104.28 26.32 102.51 25.19Q100.74 24.05 99.71 21.86Q98.69 19.66 98.69 16.48L98.69 16.48Q98.69 13.22 99.75 11.03Q100.81 8.84 102.57 7.75Q104.33 6.65 106.45 6.65L106.45 6.65Q108.07 6.65 109.15 7.20Q110.22 7.75 110.89 8.55Q111.56 9.35 111.88 10.11L111.88 10.11L112.05 10.11L112.05 0.54L117.18 0.54L117.18 26L112.14 26L112.14 22.94L111.88 22.94Q111.54 23.71 110.86 24.49Q110.19 25.27 109.11 25.79Q108.04 26.32 106.48 26.32ZM108.05 22.21L108.05 22.21Q109.35 22.21 110.27 21.49Q111.20 20.77 111.68 19.48Q112.15 18.19 112.15 16.46L112.15 16.46Q112.15 14.72 111.68 13.45Q111.21 12.17 110.29 11.47Q109.37 10.76 108.05 10.76L108.05 10.76Q106.70 10.76 105.79 11.49Q104.87 12.23 104.41 13.51Q103.95 14.79 103.95 16.46L103.95 16.46Q103.95 18.14 104.42 19.44Q104.89 20.74 105.81 21.47Q106.72 22.21 108.05 22.21ZM126.87 26.38L126.87 26.38Q124.56 26.38 122.78 25.72Q121.00 25.06 119.88 23.80Q118.75 22.55 118.42 20.77L118.42 20.77L123.19 19.95Q123.57 21.28 124.51 21.95Q125.45 22.62 127.02 22.62L127.02 22.62Q128.47 22.62 129.33 22.06Q130.18 21.51 130.18 20.65L130.18 20.65Q130.18 19.90 129.57 19.42Q128.97 18.94 127.72 18.69L127.72 18.69L124.42 18.00Q121.65 17.44 120.29 16.08Q118.92 14.72 118.92 12.58L118.92 12.58Q118.92 10.74 119.93 9.41Q120.94 8.09 122.73 7.37Q124.52 6.65 126.95 6.65L126.95 6.65Q129.21 6.65 130.87 7.28Q132.52 7.90 133.55 9.05Q134.57 10.19 134.92 11.75L134.92 11.75L130.37 12.55Q130.08 11.58 129.25 10.95Q128.42 10.33 127.02 10.33L127.02 10.33Q125.76 10.33 124.90 10.86Q124.05 11.39 124.05 12.26L124.05 12.26Q124.05 12.99 124.60 13.49Q125.16 13.99 126.51 14.26L126.51 14.26L129.94 14.94Q132.71 15.51 134.06 16.78Q135.41 18.05 135.41 20.10L135.41 20.10Q135.41 21.98 134.32 23.39Q133.22 24.80 131.30 25.59Q129.38 26.38 126.87 26.38Z"/></g>
            
          </svg>
        